<svg xmlns="http://www.w3.org/2000/svg" width="16.441" height="16.001" viewBox="0 0 16.441 16.001">
    <path fill="#fff" d="M-649.648 638.5a4.255 4.255 0 0 0 2.532-.893 6.111 6.111 0 0 0 6.5-.085 5.764 5.764 0 0 0 2.148-2.522 6.671 6.671 0 0 1-.9.067 6.861 6.861 0 0 1-6.85-6.857q0-.355.037-.71a5.915 5.915 0 0 0-2.657 2.067 5.526 5.526 0 0 0 .051 6.506 8.168 8.168 0 0 1-1.021 1.944.342.342 0 0 0-.044.31.233.233 0 0 0 .204.173zm10.275-4.572a6.073 6.073 0 0 0 3.176-.892 4.256 4.256 0 0 0 2.533.892.229.229 0 0 0 .209-.172.34.34 0 0 0-.044-.31 8.406 8.406 0 0 1-1.021-1.946 5.544 5.544 0 0 0-.655-7.326 6.02 6.02 0 0 0-4.2-1.674 6.023 6.023 0 0 0-4.2 1.673 5.565 5.565 0 0 0-.215 7.866c.07.074.142.146.215.215a6.013 6.013 0 0 0 4.202 1.672zm1.4-6.724a.083.083 0 0 1-.064-.031l-.007-.007a1.824 1.824 0 0 0-.842-.434 1.375 1.375 0 0 0-.257-.027.845.845 0 0 0-.494.149.491.491 0 0 0-.213.423.369.369 0 0 0 .052.184.653.653 0 0 0 .116.145.9.9 0 0 0 .2.13c.1.051.165.083.229.111s.157.066.277.113l.213.086c.053.022.127.053.213.092a2.215 2.215 0 0 1 .212.106 1.638 1.638 0 0 1 .2.123 1.166 1.166 0 0 1 .186.148 1.841 1.841 0 0 1 .15.17.81.81 0 0 1 .123.2 1.367 1.367 0 0 1 .073.23 1.24 1.24 0 0 1 .03.271 1.2 1.2 0 0 1-.34.84 1.594 1.594 0 0 1-.884.464v.624a.1.1 0 0 1-.033.078.107.107 0 0 1-.078.033h-.473a.106.106 0 0 1-.08-.032.108.108 0 0 1-.031-.08v-.61a1.861 1.861 0 0 1-.383-.08 2.058 2.058 0 0 1-.3-.116 1.627 1.627 0 0 1-.22-.13c-.065-.045-.115-.083-.135-.1a.633.633 0 0 1-.052-.048.1.1 0 0 1-.018-.132l.281-.506a.1.1 0 0 1 .079-.055h.022a.122.122 0 0 1 .071.027l.051.042c.024.019.064.046.135.092a1.858 1.858 0 0 0 .2.11 1.518 1.518 0 0 0 .258.09 1.132 1.132 0 0 0 .3.041.9.9 0 0 0 .538-.149.453.453 0 0 0 .208-.385.437.437 0 0 0-.03-.167.378.378 0 0 0-.1-.144 1.706 1.706 0 0 0-.137-.115 1.255 1.255 0 0 0-.194-.107c-.078-.037-.149-.069-.21-.094l-.227-.09-.016-.006c-.114-.043-.218-.08-.281-.109s-.156-.07-.263-.122a2.246 2.246 0 0 1-.262-.147 2.238 2.238 0 0 1-.215-.173.87.87 0 0 1-.184-.221 1.309 1.309 0 0 1-.109-.265 1.194 1.194 0 0 1-.044-.326 1.327 1.327 0 0 1 .344-.915 1.5 1.5 0 0 1 .9-.473v-.616a.107.107 0 0 1 .111-.1h.467a.107.107 0 0 1 .078.033.105.105 0 0 1 .033.079v.606a2.3 2.3 0 0 1 .442.107 2.339 2.339 0 0 1 .351.155 2.226 2.226 0 0 1 .257.167c.056.041.11.084.161.129.033.032.052.053.061.063a.1.1 0 0 1 .006.141l-.357.468a.106.106 0 0 1-.079.042h-.017z" transform="translate(649.877 -622.498)"/>
</svg>
